<svg width="512" height="512" viewBox="0 0 512 512" fill="none" xmlns="http://www.w3.org/2000/svg">
<path d="M368 16H144C73.3075 16 16 73.3075 16 144V368C16 438.692 73.3075 496 144 496H368C438.692 496 496 438.692 496 368V144C496 73.3075 438.692 16 368 16Z" fill="#18181B" stroke="url(#paint0_linear_9_2)" stroke-width="24"/>
<path d="M160 128L112 256L160 384" stroke="url(#paint1_linear_9_2)" stroke-width="32" stroke-linecap="round" stroke-linejoin="round"/>
<path d="M352 128L400 256L352 384" stroke="url(#paint2_linear_9_2)" stroke-width="32" stroke-linecap="round" stroke-linejoin="round"/>
<path opacity="0.6" d="M192 192H272" stroke="url(#paint3_linear_9_2)" stroke-width="24" stroke-linecap="round"/>
<path d="M208 256H320" stroke="url(#paint4_linear_9_2)" stroke-width="24" stroke-linecap="round"/>
<path opacity="0.6" d="M192 320H288" stroke="url(#paint5_linear_9_2)" stroke-width="24" stroke-linecap="round"/>
<defs>
<linearGradient id="paint0_linear_9_2" x1="16" y1="16" x2="496" y2="496" gradientUnits="userSpaceOnUse">
<stop stop-color="#34D399"/>
<stop offset="1" stop-color="#10B981"/>
</linearGradient>
<linearGradient id="paint1_linear_9_2" x1="112" y1="128" x2="160" y2="384" gradientUnits="userSpaceOnUse">
<stop stop-color="#34D399"/>
<stop offset="1" stop-color="#10B981"/>
</linearGradient>
<linearGradient id="paint2_linear_9_2" x1="352" y1="128" x2="400" y2="384" gradientUnits="userSpaceOnUse">
<stop stop-color="#34D399"/>
<stop offset="1" stop-color="#10B981"/>
</linearGradient>
<linearGradient id="paint3_linear_9_2" x1="192" y1="192" x2="272" y2="192" gradientUnits="userSpaceOnUse">
<stop stop-color="#34D399"/>
<stop offset="1" stop-color="#10B981"/>
</linearGradient>
<linearGradient id="paint4_linear_9_2" x1="208" y1="256" x2="320" y2="256" gradientUnits="userSpaceOnUse">
<stop stop-color="#34D399"/>
<stop offset="1" stop-color="#10B981"/>
</linearGradient>
<linearGradient id="paint5_linear_9_2" x1="192" y1="320" x2="288" y2="320" gradientUnits="userSpaceOnUse">
<stop stop-color="#34D399"/>
<stop offset="1" stop-color="#10B981"/>
</linearGradient>
</defs>
</svg>
